<?xml version="1.0" standalone="no"?>
<!DOCTYPE svg PUBLIC "-//W3C//DTD SVG 20010904//EN"
 "http://www.w3.org/TR/2001/REC-SVG-20010904/DTD/svg10.dtd">
<svg version="1.0" xmlns="http://www.w3.org/2000/svg"
 width="736.000000pt" height="736.000000pt" viewBox="0 0 736.000000 736.000000"
 preserveAspectRatio="xMidYMid meet">
<metadata>
Created by potrace 1.11, written by Peter Selinger 2001-2013
</metadata>
<g transform="translate(0.000000,736.000000) scale(0.100000,-0.100000)"
fill="#000000" stroke="none">
<path d="M3052 4578 c-11 -24 -122 -256 -246 -517 -124 -260 -226 -477 -226
-482 0 -5 113 -9 255 -9 140 0 255 -4 255 -8 0 -8 -181 -513 -270 -752 l-31
-85 148 146 c81 81 345 342 587 580 l438 434 -349 5 -349 5 90 188 91 188 375
-3 375 -3 57 -28 c67 -33 121 -90 157 -166 22 -48 26 -69 26 -151 0 -145 -1
-147 -329 -477 -154 -156 -278 -285 -275 -288 2 -2 94 -95 203 -205 l200 -200
245 0 246 0 -205 205 -205 205 156 157 c174 177 203 212 246 298 59 118 68
158 68 305 0 116 -3 145 -24 205 -80 235 -224 383 -450 463 l-76 27 -581 3
-581 3 -21 -43z"/>
</g>
</svg>
